<svg xmlns="http://www.w3.org/2000/svg" version="1.1" xmlns:xlink="http://www.w3.org/1999/xlink" xmlns:svgjs="http://svgjs.dev/svgjs" width="1500" height="1500" viewBox="0 0 1500 1500"><rect width="1500" height="1500" fill="#ffffff"></rect><g transform="matrix(0.6666666666666666,0,0,0.6666666666666666,249.39393939393938,640.6210252562772)"><svg viewBox="0 0 396 87" data-background-color="#000000" preserveAspectRatio="xMidYMid meet" height="329" width="1500" xmlns="http://www.w3.org/2000/svg" xmlns:xlink="http://www.w3.org/1999/xlink"><g id="tight-bounds" transform="matrix(1,0,0,1,0.2400000000000091,-0.11411488128925384)"><svg viewBox="0 0 395.52 87.22822976257851" height="87.22822976257851" width="395.52"><g><svg viewBox="0 0 531.9822506537764 117.32370041879359" height="87.22822976257851" width="395.52"><g transform="matrix(1,0,0,1,136.4622506537764,42.44796126263151)"><svg viewBox="0 0 395.52 32.42777789353057" height="32.42777789353057" width="395.52"><g id="textblocktransform"><svg viewBox="0 0 395.52 32.42777789353057" height="32.42777789353057" width="395.52" id="textblock"><g><svg viewBox="0 0 395.52 32.42777789353057" height="32.42777789353057" width="395.52"><g transform="matrix(1,0,0,1,0,0)"><svg width="395.52" viewBox="0.35 -38.7 479.9 39.35" height="32.42777789353057" data-palette-color="#89939e"><path d="M20.45-34.4L25.05-34.4 15.55 0 10 0 0.35-34.4 5.15-34.4 12.85-4.5 20.45-34.4ZM47.55-26.3L47.55 0 43.65 0 43.4-3.95Q40.65 0.65 36.05 0.65L36.05 0.65Q32.9 0.65 31.1-1.4 29.3-3.45 29.3-6.95L29.3-6.95 29.3-26.3 33.8-26.3 33.8-7.35Q33.8-5.05 34.67-3.98 35.55-2.9 37.3-2.9L37.3-2.9Q40.65-2.9 43.05-7.3L43.05-7.3 43.05-26.3 47.55-26.3ZM60.6 0.65Q58.2 0.65 56.8-0.8 55.4-2.25 55.4-4.85L55.4-4.85 55.4-36.95 59.9-37.45 59.9-5Q59.9-3.05 61.5-3.05L61.5-3.05Q62.15-3.05 62.95-3.35L62.95-3.35 63.95-0.2Q62.35 0.65 60.6 0.65L60.6 0.65ZM80.59-26.95Q83.74-26.95 85.52-24.88 87.29-22.8 87.29-19.15L87.29-19.15 87.29 0 82.79 0 82.79-18.6Q82.79-21.15 81.94-22.28 81.09-23.4 79.34-23.4L79.34-23.4Q76.04-23.4 73.34-18.7L73.34-18.7 73.34 0 68.84 0 68.84-26.3 72.74-26.3 73.09-22.4Q76.14-26.95 80.59-26.95L80.59-26.95ZM113.64-13.95Q113.64-12.9 113.54-11.6L113.54-11.6 98.24-11.6Q98.44-7 100.09-4.98 101.74-2.95 104.59-2.95L104.59-2.95Q106.39-2.95 107.82-3.5 109.24-4.05 110.79-5.3L110.79-5.3 112.79-2.65Q109.09 0.65 104.39 0.65L104.39 0.65Q99.24 0.65 96.42-2.93 93.59-6.5 93.59-12.95L93.59-12.95Q93.59-19.4 96.29-23.18 98.99-26.95 103.79-26.95L103.79-26.95Q108.54-26.95 111.09-23.58 113.64-20.2 113.64-13.95L113.64-13.95ZM109.29-14.75L109.29-15.3Q109.29-23.55 103.84-23.55L103.84-23.55Q101.34-23.55 99.89-21.48 98.44-19.4 98.24-14.75L98.24-14.75 109.29-14.75ZM130.69-26.9Q131.99-26.9 132.94-26.6L132.94-26.6 132.19-22.25Q131.24-22.55 130.14-22.55L130.14-22.55Q127.94-22.55 126.56-20.8 125.19-19.05 124.39-15.45L124.39-15.45 124.39 0 119.89 0 119.89-26.3 123.79-26.3 124.14-21.1Q126.09-26.9 130.69-26.9L130.69-26.9ZM153.74-6Q153.74-4.4 154.19-3.63 154.64-2.85 155.59-2.45L155.59-2.45 154.64 0.6Q152.69 0.3 151.59-0.6 150.49-1.5 150.04-3.35L150.04-3.35Q147.49 0.65 142.89 0.65L142.89 0.65Q139.39 0.65 137.34-1.53 135.29-3.7 135.29-7.35L135.29-7.35Q135.29-11.55 138.04-13.75 140.79-15.95 145.89-15.95L145.89-15.95 149.29-15.95 149.29-18.2Q149.29-20.95 148.16-22.18 147.04-23.4 144.49-23.4L144.49-23.4Q141.74-23.4 138.09-22L138.09-22 136.99-25.15Q141.39-26.95 145.19-26.95L145.19-26.95Q153.74-26.95 153.74-18.4L153.74-18.4 153.74-6ZM143.94-2.75Q147.44-2.75 149.29-6.85L149.29-6.85 149.29-13.05 146.39-13.05Q139.89-13.05 139.89-7.6L139.89-7.6Q139.89-5.25 140.94-4 141.99-2.75 143.94-2.75L143.94-2.75ZM173.13-26.95Q177.28-26.95 179.56-23.43 181.83-19.9 181.83-13.2L181.83-13.2Q181.83-6.8 179.36-3.08 176.88 0.65 172.63 0.65L172.63 0.65Q170.63 0.65 168.98-0.28 167.33-1.2 166.13-2.9L166.13-2.9 165.83 0 161.83 0 161.83-36.9 166.33-37.4 166.33-23.1Q167.58-24.9 169.31-25.93 171.03-26.95 173.13-26.95L173.13-26.95ZM171.58-2.9Q177.13-2.9 177.13-13.2L177.13-13.2Q177.13-18.75 175.78-21.08 174.43-23.4 171.93-23.4L171.93-23.4Q170.18-23.4 168.86-22.35 167.53-21.3 166.33-19.4L166.33-19.4 166.33-6.35Q167.28-4.8 168.63-3.85 169.98-2.9 171.58-2.9L171.58-2.9ZM193.38 0.65Q190.98 0.65 189.58-0.8 188.18-2.25 188.18-4.85L188.18-4.85 188.18-36.95 192.68-37.45 192.68-5Q192.68-3.05 194.28-3.05L194.28-3.05Q194.93-3.05 195.73-3.35L195.73-3.35 196.73-0.2Q195.13 0.65 193.38 0.65L193.38 0.65ZM220.08-13.95Q220.08-12.9 219.98-11.6L219.98-11.6 204.68-11.6Q204.88-7 206.53-4.98 208.18-2.95 211.03-2.95L211.03-2.95Q212.83-2.95 214.25-3.5 215.68-4.05 217.23-5.3L217.23-5.3 219.23-2.65Q215.53 0.65 210.83 0.65L210.83 0.65Q205.68 0.65 202.85-2.93 200.03-6.5 200.03-12.95L200.03-12.95Q200.03-19.4 202.73-23.18 205.43-26.95 210.23-26.95L210.23-26.95Q214.98-26.95 217.53-23.58 220.08-20.2 220.08-13.95L220.08-13.95ZM215.73-14.75L215.73-15.3Q215.73-23.55 210.28-23.55L210.28-23.55Q207.78-23.55 206.33-21.48 204.88-19.4 204.68-14.75L204.68-14.75 215.73-14.75ZM249.67-35.05Q252.37-35.05 254.37-34.23 256.37-33.4 258.32-31.65L258.32-31.65 255.92-28.85Q254.47-30.1 253.05-30.7 251.62-31.3 249.92-31.3L249.92-31.3Q246.02-31.3 243.72-27.98 241.42-24.65 241.42-17.25L241.42-17.25Q241.42-10.05 243.72-6.63 246.02-3.2 249.92-3.2L249.92-3.2Q251.87-3.2 253.27-3.9 254.67-4.6 256.32-5.95L256.32-5.95 258.67-3.2Q254.92 0.65 249.67 0.65L249.67 0.65Q245.82 0.65 242.85-1.35 239.87-3.35 238.2-7.38 236.52-11.4 236.52-17.25L236.52-17.25Q236.52-23.05 238.25-27.05 239.97-31.05 242.95-33.05 245.92-35.05 249.67-35.05L249.67-35.05ZM275.22-26.95Q278.37-26.95 280.15-24.85 281.92-22.75 281.92-19.15L281.92-19.15 281.92 0 277.42 0 277.42-18.6Q277.42-21.15 276.55-22.28 275.67-23.4 273.97-23.4L273.97-23.4Q270.67-23.4 267.97-18.7L267.97-18.7 267.97 0 263.47 0 263.47-36.9 267.97-37.4 267.97-22.55Q269.42-24.7 271.17-25.83 272.92-26.95 275.22-26.95L275.22-26.95ZM289.82-26.3L294.32-26.3 294.32 0 289.82 0 289.82-26.3ZM292.07-38.7Q293.37-38.7 294.19-37.85 295.02-37 295.02-35.75L295.02-35.75Q295.02-34.5 294.22-33.68 293.42-32.85 292.07-32.85L292.07-32.85Q290.77-32.85 289.94-33.68 289.12-34.5 289.12-35.75L289.12-35.75Q289.12-37 289.94-37.85 290.77-38.7 292.07-38.7L292.07-38.7ZM307.37 0.65Q304.97 0.65 303.57-0.8 302.17-2.25 302.17-4.85L302.17-4.85 302.17-36.95 306.67-37.45 306.67-5Q306.67-3.05 308.27-3.05L308.27-3.05Q308.92-3.05 309.72-3.35L309.72-3.35 310.72-0.2Q309.12 0.65 307.37 0.65L307.37 0.65ZM329.81-37.45L334.31-36.95 334.31 0 330.31 0 330.01-3.45Q327.46 0.65 323.16 0.65L323.16 0.65Q318.86 0.65 316.49-3 314.11-6.65 314.11-13.05L314.11-13.05Q314.11-17.2 315.29-20.35 316.46-23.5 318.61-25.23 320.76-26.95 323.56-26.95L323.56-26.95Q327.31-26.95 329.81-23.8L329.81-23.8 329.81-37.45ZM324.21-2.9Q326.01-2.9 327.34-3.9 328.66-4.9 329.81-6.85L329.81-6.85 329.81-20.05Q327.56-23.4 324.56-23.4L324.56-23.4Q321.91-23.4 320.36-20.85 318.81-18.3 318.86-13.15L318.86-13.15Q318.86-7.9 320.26-5.4 321.66-2.9 324.21-2.9L324.21-2.9ZM353.21-26.9Q354.51-26.9 355.46-26.6L355.46-26.6 354.71-22.25Q353.76-22.55 352.66-22.55L352.66-22.55Q350.46-22.55 349.09-20.8 347.71-19.05 346.91-15.45L346.91-15.45 346.91 0 342.41 0 342.41-26.3 346.31-26.3 346.66-21.1Q348.61-26.9 353.21-26.9L353.21-26.9ZM378.31-13.95Q378.31-12.9 378.21-11.6L378.21-11.6 362.91-11.6Q363.11-7 364.76-4.98 366.41-2.95 369.26-2.95L369.26-2.95Q371.06-2.95 372.48-3.5 373.91-4.05 375.46-5.3L375.46-5.3 377.46-2.65Q373.76 0.65 369.06 0.65L369.06 0.65Q363.91 0.65 361.08-2.93 358.26-6.5 358.26-12.95L358.26-12.95Q358.26-19.4 360.96-23.18 363.66-26.95 368.46-26.95L368.46-26.95Q373.21-26.95 375.76-23.58 378.31-20.2 378.31-13.95L378.31-13.95ZM373.96-14.75L373.96-15.3Q373.96-23.55 368.51-23.55L368.51-23.55Q366.01-23.55 364.56-21.48 363.11-19.4 362.91-14.75L362.91-14.75 373.96-14.75ZM396.31-26.95Q399.46-26.95 401.23-24.88 403.01-22.8 403.01-19.15L403.01-19.15 403.01 0 398.51 0 398.51-18.6Q398.51-21.15 397.66-22.28 396.81-23.4 395.06-23.4L395.06-23.4Q391.76-23.4 389.06-18.7L389.06-18.7 389.06 0 384.56 0 384.56-26.3 388.46-26.3 388.81-22.4Q391.86-26.95 396.31-26.95L396.31-26.95ZM444.55 0L439.75 0 437.45-8.75 425.9-8.75 423.6 0 418.95 0 428.9-34.4 434.6-34.4 444.55 0ZM431.7-30.7L426.85-12.4 436.5-12.4 431.7-30.7ZM448.95-26.3L453.45-26.3 453.45 0 448.95 0 448.95-26.3ZM451.2-38.7Q452.5-38.7 453.32-37.85 454.15-37 454.15-35.75L454.15-35.75Q454.15-34.5 453.35-33.68 452.55-32.85 451.2-32.85L451.2-32.85Q449.9-32.85 449.07-33.68 448.25-34.5 448.25-35.75L448.25-35.75Q448.25-37 449.07-37.85 449.9-38.7 451.2-38.7L451.2-38.7ZM475.75-37.45L480.25-36.95 480.25 0 476.25 0 475.95-3.45Q473.4 0.65 469.1 0.65L469.1 0.65Q464.8 0.65 462.42-3 460.05-6.65 460.05-13.05L460.05-13.05Q460.05-17.2 461.22-20.35 462.4-23.5 464.55-25.23 466.7-26.95 469.5-26.95L469.5-26.95Q473.25-26.95 475.75-23.8L475.75-23.8 475.75-37.45ZM470.15-2.9Q471.95-2.9 473.27-3.9 474.6-4.9 475.75-6.85L475.75-6.85 475.75-20.05Q473.5-23.4 470.5-23.4L470.5-23.4Q467.85-23.4 466.3-20.85 464.75-18.3 464.8-13.15L464.8-13.15Q464.8-7.9 466.2-5.4 467.6-2.9 470.15-2.9L470.15-2.9Z" opacity="1" transform="matrix(1,0,0,1,0,0)" fill="#000000" class="wordmark-text-0" data-fill-palette-color="primary" id="text-0"></path></svg></g></svg></g></svg></g></svg></g><g><svg viewBox="0 0 117.32370041879359 117.32370041879359" height="117.32370041879359" width="117.32370041879359"><g><svg viewBox="0 0 117.32370041879359 117.32370041879359" height="117.32370041879359" width="117.32370041879359"><g transform="matrix(1,0,0,1,39.99994529043451,31.008388822720818)"><svg viewBox="0 0 37.32380983792458 55.30692277335196" height="55.30692277335196" width="37.32380983792458"><g><svg xmlns="http://www.w3.org/2000/svg" xmlns:xlink="http://www.w3.org/1999/xlink" version="1.1" x="0" y="0" viewBox="5.204170427930421e-18 0 61.254 90.76700000000001" enable-background="new 0 0 61.254 90.766" xml:space="preserve" width="37.32380983792458" height="55.30692277335196" class="icon-cg-0" data-fill-palette-color="accent" id="cg-0"><path fill="#000000" d="M51.577 52.921c5.943-5.585 9.676-13.497 9.677-22.294C61.251 13.707 47.539 0 30.628 0 14.476 0 1.278 12.503 0.114 28.358c-0.061 0.709-0.103 1.424-0.108 2.146 0 0.041-0.006 0.08-0.006 0.122 0 0.993 0.056 1.972 0.149 2.941 0.761 7.93 4.554 14.966 10.198 19.967-0.185 0.268-0.38 0.526-0.552 0.805-3.897 6.25-4.89 14.282-4.91 22.873 0.135 1.776 1.098 2.228 1.427 2.501 0.735 0.458 1.247 0.593 1.852 0.799 0.708 0.223 1.461 0.42 2.066 0.6 0.521 3.934 2.764 6.937 5.876 8.181 3.4 1.439 7.266 1.448 11.601 1.474 1.062 0 2.157-0.003 3.283-0.003 5.148-0.022 9.746 0.062 13.682-1.223 1.957-0.65 3.804-1.742 5.138-3.471 1.064-1.371 1.734-3.051 2.039-4.957 0.5-0.153 1.131-0.331 1.722-0.511 0.508-0.161 0.992-0.314 1.523-0.562 0.271-0.135 0.558-0.274 0.935-0.594 0.333-0.296 1.025-0.937 1.063-2.233-0.021-8.538-0.75-16.547-4.532-22.837C52.26 53.87 51.921 53.395 51.577 52.921zM5.314 30.626c0-0.03 0.004-0.057 0.004-0.087l3.807-5.667c0 0 5.705 4.129 17.785 6.83 12.081 2.702 23.455-0.129 23.455-0.129s2.248 4.191 4.361 6.749c-3.266 10.207-12.808 17.595-24.099 17.617C16.647 55.911 5.34 44.604 5.314 30.626zM34.989 60.905c-0.161 0.312-0.343 0.613-0.566 0.87-0.729 0.8-1.626 1.469-3.913 1.507-3.123-0.087-3.948-1.18-4.729-2.442-0.002-0.003-0.002-0.006-0.003-0.01 1.583 0.253 3.195 0.421 4.85 0.421C32.113 61.251 33.561 61.11 34.989 60.905zM50.262 76.039c-0.507 0.158-0.988 0.312-1.515 0.551-0.008 0.005-0.017 0.01-0.024 0.013l-1.8-13.122c0 0 0.265 5.716 0.451 9.423 0.11 2.209-0.09 4.007-0.271 5.111-0.183 0.319-0.344 0.716-0.393 1.268-0.118 1.773-0.552 2.812-1.104 3.53-0.8 1.05-2.271 1.794-4.851 2.209-2.534 0.413-5.915 0.429-9.766 0.426-1.14 0-2.238 0.003-3.283 0.003-4.234 0.025-7.644-0.189-9.473-1.03-1.725-0.888-2.508-1.594-2.81-5.121-0.087-0.644-0.263-1.096-0.465-1.428-0.174-1.116-0.353-2.849-0.248-4.968 0.186-3.707 0.451-9.423 0.451-9.423L13.36 76.612c-1.063-0.496-2.003-0.674-2.968-0.981-0.06-0.019-0.121-0.035-0.179-0.052 0.126-7.486 1.273-13.995 4.081-18.41 0.105-0.163 0.223-0.31 0.332-0.466 1.632 1.003 3.361 1.856 5.179 2.544 0.117 0.942 0.425 2.455 1.287 4.098 1.276 2.587 4.515 5.341 9.418 5.254 0.078 0.001 0.157 0.001 0.235 0.001 4.702 0 7.817-2.752 9.018-5.33 0.737-1.474 1.049-2.853 1.186-3.841 2.282-0.818 4.444-1.88 6.44-3.188 0.211 0.296 0.433 0.581 0.629 0.894 2.699 4.38 3.655 10.918 3.751 18.46C51.312 75.729 50.772 75.886 50.262 76.039zM37.733 44.648c1.708 0 3.091-2.244 3.091-5.01s-1.383-5.007-3.091-5.007-3.09 2.241-3.09 5.007S36.025 44.648 37.733 44.648zM14.688 48.408c0.125 0.085 6.693 5.318 16.586 5.332 9.989-0.024 16.312-6.25 16.432-6.347 0.523-0.515 0.533-1.354 0.02-1.878-0.513-0.524-1.353-0.535-1.876-0.02-0.003 0-0.319 0.31-0.991 0.833-2.023 1.58-6.97 4.764-13.584 4.755-4.462 0-8.217-1.2-10.853-2.402-1.318-0.603-2.355-1.203-3.05-1.648-0.697-0.444-1.026-0.71-1.029-0.707-0.576-0.458-1.413-0.36-1.867 0.215-0.457 0.572-0.359 1.408 0.216 1.867H14.688zM24.091 44.648c1.706 0 3.089-2.244 3.089-5.01s-1.383-5.007-3.089-5.007c-1.708 0-3.091 2.241-3.091 5.007S22.383 44.648 24.091 44.648z" data-fill-palette-color="accent"></path></svg></g></svg></g><g id="text-0"><path d="M3.013 39.023l0.371-1.129 7.704 5.134-0.45 1.365-9.259-0.413 0.391-1.185 7.99 0.531z" fill="#000000" data-fill-palette-color="accent"></path><path d="M8.272 32.229l6.181 2.898-0.428 0.913-0.956-0.382c0.52 0.773 0.611 1.518 0.275 2.234v0c-0.232 0.494-0.574 0.808-1.026 0.941-0.458 0.131-0.961 0.067-1.509-0.189v0l-4.546-2.132 0.496-1.057 4.455 2.089c0.361 0.17 0.659 0.225 0.893 0.165 0.234-0.059 0.414-0.225 0.541-0.496v0c0.246-0.524 0.11-1.135-0.408-1.833v0l-4.464-2.094z" fill="#000000" data-fill-palette-color="accent"></path><path d="M16.56 32.065c-0.217 0.351-0.498 0.564-0.843 0.641-0.335 0.074-0.695-0.008-1.08-0.246v0l-7.078-4.381 0.504-1.061 7.155 4.428c0.289 0.179 0.505 0.152 0.648-0.08v0c0.06-0.096 0.103-0.218 0.132-0.365v0l0.832 0.21c-0.023 0.315-0.113 0.599-0.27 0.854z" fill="#000000" data-fill-palette-color="accent"></path><path d="M14.18 23.251c0.332-0.433 0.734-0.661 1.206-0.685 0.471-0.024 0.958 0.157 1.459 0.541v0l3.942 3.028-0.711 0.926-3.823-2.936c-0.354-0.272-0.651-0.408-0.894-0.41-0.242-0.001-0.457 0.119-0.643 0.362v0c-0.349 0.454-0.343 1.113 0.017 1.977v0l3.848 2.954-0.711 0.926-5.415-4.158 0.62-0.807 0.862 0.549c-0.308-0.899-0.227-1.655 0.243-2.267z" fill="#000000" data-fill-palette-color="accent"></path><path d="M23.308 18.6c0.13 0.134 0.264 0.286 0.403 0.457v0l-2.839 2.764c0.581 0.549 1.097 0.85 1.548 0.903 0.446 0.048 0.846-0.099 1.198-0.443v0c0.219-0.213 0.385-0.439 0.497-0.677 0.111-0.238 0.188-0.532 0.23-0.88v0l0.852 0.132c-0.059 0.856-0.381 1.569-0.967 2.14v0c-0.634 0.617-1.343 0.876-2.128 0.775-0.78-0.105-1.559-0.557-2.339-1.358v0c-0.775-0.796-1.223-1.59-1.344-2.383-0.126-0.797 0.109-1.485 0.705-2.065v0c0.586-0.571 1.244-0.802 1.972-0.694 0.723 0.113 1.461 0.556 2.212 1.329zM22.361 19.244l-0.105-0.108c-0.993-1.02-1.828-1.201-2.505-0.542v0c-0.31 0.302-0.43 0.669-0.361 1.104 0.074 0.429 0.38 0.944 0.918 1.544v0z" fill="#000000" data-fill-palette-color="accent"></path><path d="M25.336 12.777c0.179-0.138 0.348-0.235 0.507-0.29v0l0.538 1.009c-0.164 0.059-0.32 0.146-0.468 0.26v0c-0.3 0.231-0.454 0.539-0.461 0.922-0.003 0.389 0.129 0.871 0.396 1.446v0l2.448 3.179-0.925 0.712-4.166-5.408 0.807-0.621 0.899 1.02c-0.35-0.999-0.208-1.742 0.425-2.229z" fill="#000000" data-fill-palette-color="accent"></path><path d="M34.17 13.679c0.144 0.239 0.282 0.397 0.413 0.473 0.137 0.073 0.294 0.095 0.471 0.067v0l0.198 0.812c-0.318 0.129-0.598 0.174-0.841 0.133-0.244-0.032-0.483-0.164-0.716-0.396v0c-0.02 0.819-0.369 1.433-1.047 1.841v0c-0.519 0.312-1.03 0.398-1.533 0.259-0.494-0.137-0.904-0.477-1.23-1.019v0c-0.374-0.621-0.456-1.216-0.247-1.785 0.212-0.578 0.696-1.095 1.455-1.551v0l0.752-0.452-0.298-0.496c-0.247-0.41-0.506-0.654-0.778-0.732-0.281-0.08-0.609-0.006-0.986 0.22v0c-0.405 0.244-0.816 0.631-1.234 1.162v0l-0.67-0.552c0.494-0.662 1.021-1.162 1.579-1.498v0c1.271-0.765 2.29-0.512 3.055 0.76v0zM32.427 15.718c0.519-0.312 0.732-0.856 0.638-1.631v0l-0.829-1.376-0.641 0.385c-0.964 0.58-1.203 1.272-0.72 2.076v0c0.213 0.353 0.451 0.575 0.715 0.665 0.267 0.096 0.546 0.056 0.837-0.119z" fill="#000000" data-fill-palette-color="accent"></path><path d="M36.994 6.408c0.659-0.287 1.29-0.229 1.895 0.175 0.605 0.404 1.138 1.137 1.601 2.198v0c0.442 1.012 0.596 1.9 0.465 2.661-0.138 0.765-0.543 1.293-1.214 1.586v0c-0.317 0.138-0.639 0.192-0.965 0.16-0.326-0.032-0.642-0.141-0.948-0.327v0l0.226 0.718-0.952 0.415-3.827-8.773 1.018-0.586 1.485 3.403c0.076-0.374 0.216-0.704 0.418-0.988 0.197-0.282 0.462-0.496 0.798-0.642zM39.127 12.294c0.878-0.383 0.961-1.392 0.247-3.026v0c-0.383-0.878-0.763-1.457-1.138-1.736-0.373-0.273-0.758-0.323-1.154-0.15v0c-0.281 0.122-0.489 0.311-0.624 0.566-0.142 0.258-0.24 0.58-0.297 0.968v0l1.353 3.102c0.259 0.177 0.528 0.296 0.808 0.355 0.28 0.059 0.548 0.033 0.805-0.079z" fill="#000000" data-fill-palette-color="accent"></path><path d="M45.101 11.141c-0.394 0.121-0.746 0.097-1.056-0.073-0.301-0.165-0.518-0.464-0.651-0.897v0l-2.439-7.958 1.078-0.466 2.466 8.044c0.099 0.324 0.28 0.447 0.54 0.367v0c0.108-0.033 0.221-0.096 0.34-0.188v0l0.487 0.707c-0.224 0.222-0.48 0.377-0.765 0.464z" fill="#000000" data-fill-palette-color="accent"></path><path d="M51.485 5.934c0.036 0.183 0.065 0.384 0.087 0.603v0l-3.889 0.759c0.186 0.777 0.453 1.312 0.801 1.603 0.347 0.285 0.762 0.38 1.246 0.286v0c0.3-0.059 0.563-0.157 0.786-0.296 0.224-0.139 0.449-0.342 0.674-0.61v0l0.642 0.577c-0.517 0.684-1.178 1.104-1.981 1.261v0c-0.869 0.17-1.604-0.002-2.206-0.515-0.595-0.514-1-1.32-1.214-2.417v0c-0.213-1.091-0.153-2.001 0.179-2.73 0.331-0.736 0.905-1.183 1.721-1.343v0c0.803-0.157 1.48 0.009 2.029 0.499 0.543 0.491 0.918 1.265 1.125 2.323zM50.34 5.954l-0.029-0.147c-0.273-1.398-0.873-2.006-1.8-1.825v0c-0.424 0.083-0.726 0.325-0.906 0.726-0.173 0.4-0.198 0.998-0.077 1.795v0z" fill="#000000" data-fill-palette-color="accent"></path><path d="M60.697 0.12c0.466 0.007 0.871 0.082 1.214 0.227 0.344 0.151 0.683 0.379 1.019 0.684v0l-0.639 0.719c-0.243-0.216-0.487-0.38-0.732-0.489-0.251-0.11-0.523-0.167-0.816-0.172v0c-0.672-0.01-1.212 0.272-1.619 0.846-0.407 0.567-0.62 1.492-0.639 2.776v0c-0.018 1.244 0.169 2.165 0.56 2.763 0.391 0.598 0.922 0.901 1.594 0.911v0c0.339 0.005 0.63-0.051 0.871-0.168 0.248-0.123 0.517-0.299 0.806-0.527v0l0.598 0.727c-0.661 0.656-1.445 0.978-2.349 0.965v0c-0.665-0.009-1.255-0.191-1.769-0.544-0.507-0.353-0.899-0.881-1.175-1.584-0.283-0.696-0.417-1.55-0.403-2.561v0c0.014-1.005 0.176-1.851 0.485-2.539 0.309-0.688 0.722-1.201 1.24-1.539 0.517-0.339 1.102-0.503 1.754-0.495z" fill="#000000" data-fill-palette-color="accent"></path><path d="M68.414 2.978c0.54 0.077 0.936 0.318 1.188 0.723 0.252 0.405 0.334 0.914 0.247 1.527v0l-0.698 4.921-1.156-0.164 0.677-4.773c0.063-0.441 0.032-0.768-0.093-0.981-0.124-0.213-0.332-0.339-0.622-0.38v0c-0.567-0.08-1.137 0.249-1.712 0.987v0l-0.681 4.803-1.156-0.164 1.343-9.477 1.175 0.035-0.541 3.815c0.303-0.333 0.616-0.575 0.939-0.724 0.331-0.155 0.694-0.204 1.09-0.148z" fill="#000000" data-fill-palette-color="accent"></path><path d="M73.151 4.153l1.131 0.29-1.693 6.613-1.132-0.289zM74.519 1.186c0.219 0.056 0.378 0.172 0.477 0.349 0.099 0.176 0.121 0.371 0.067 0.584v0c-0.053 0.206-0.162 0.364-0.327 0.472-0.17 0.101-0.368 0.122-0.593 0.065v0c-0.219-0.056-0.379-0.169-0.48-0.34-0.105-0.178-0.132-0.37-0.079-0.576v0c0.054-0.213 0.171-0.372 0.349-0.478 0.172-0.107 0.367-0.133 0.586-0.076z" fill="#000000" data-fill-palette-color="accent"></path><path d="M76.167 12.423c-0.39-0.134-0.66-0.361-0.811-0.68-0.146-0.311-0.146-0.68 0-1.107v0l2.707-7.872 1.147 0.257-2.736 7.957c-0.11 0.321-0.037 0.526 0.221 0.614v0c0.107 0.037 0.235 0.053 0.385 0.048v0l-0.021 0.858c-0.312 0.048-0.609 0.023-0.892-0.075z" fill="#000000" data-fill-palette-color="accent"></path><path d="M85.96 5.981l1.004 0.611-4.049 8.685-0.94-0.439 0.316-0.844c-0.705 0.457-1.392 0.529-2.062 0.218v0c-0.675-0.315-1.067-0.846-1.173-1.593-0.107-0.747 0.073-1.621 0.54-2.623v0c0.304-0.651 0.664-1.181 1.081-1.588 0.411-0.41 0.849-0.672 1.314-0.786 0.464-0.114 0.916-0.068 1.356 0.137v0c0.585 0.273 0.958 0.748 1.12 1.425v0zM80.862 13.493c0.283 0.132 0.564 0.168 0.842 0.107 0.278-0.061 0.579-0.203 0.904-0.427v0l1.446-3.103c-0.105-0.688-0.393-1.141-0.863-1.36v0c-0.416-0.194-0.838-0.148-1.265 0.137-0.433 0.283-0.832 0.831-1.196 1.645v0c-0.385 0.826-0.561 1.486-0.526 1.979 0.04 0.496 0.26 0.837 0.658 1.022z" fill="#000000" data-fill-palette-color="accent"></path><path d="M91.038 12.115c0.192 0.12 0.341 0.246 0.447 0.376v0l-0.76 0.854c-0.113-0.134-0.248-0.25-0.406-0.349v0c-0.321-0.202-0.663-0.24-1.025-0.114-0.366 0.132-0.772 0.422-1.219 0.872v0l-2.135 3.397-0.989-0.621 3.632-5.78 0.862 0.541-0.646 1.197c0.816-0.674 1.562-0.798 2.239-0.373z" fill="#000000" data-fill-palette-color="accent"></path><path d="M94.956 19.432c-0.116 0.145-0.251 0.298-0.404 0.456v0l-3.093-2.476c-0.473 0.644-0.708 1.193-0.705 1.647 0.007 0.449 0.203 0.827 0.587 1.135v0c0.239 0.191 0.484 0.328 0.734 0.409 0.25 0.081 0.551 0.121 0.901 0.12v0l-0.025 0.862c-0.856 0.047-1.604-0.185-2.243-0.696v0c-0.691-0.553-1.035-1.225-1.033-2.016 0.008-0.787 0.361-1.616 1.06-2.489v0c0.695-0.867 1.427-1.41 2.198-1.628 0.775-0.223 1.488-0.075 2.137 0.445v0c0.639 0.512 0.949 1.135 0.932 1.871-0.023 0.732-0.372 1.518-1.046 2.36zM94.201 18.571l0.093-0.117c0.89-1.112 0.966-1.963 0.229-2.553v0c-0.338-0.27-0.717-0.344-1.14-0.222-0.417 0.127-0.89 0.494-1.419 1.101v0z" fill="#000000" data-fill-palette-color="accent"></path><path d="M101.169 20.959c0.379 0.393 0.545 0.824 0.499 1.294-0.046 0.47-0.297 0.924-0.752 1.363v0l-3.579 3.449-0.81-0.84 3.47-3.346c0.321-0.309 0.5-0.584 0.538-0.823 0.037-0.239-0.05-0.469-0.263-0.69v0c-0.397-0.412-1.05-0.504-1.957-0.276v0l-3.492 3.367-0.811-0.841 4.915-4.738 0.707 0.733-0.671 0.771c0.935-0.171 1.67 0.021 2.206 0.577z" fill="#000000" data-fill-palette-color="accent"></path><path d="M103.608 36.615l-0.642-1.07 1.636-1.678-1.539-2.569-2.251 0.651-0.621-1.036 8.983-2.369 0.759 1.267zM108.726 29.662l-4.727 1.354 1.288 2.149z" fill="#000000" data-fill-palette-color="accent"></path><path d="M110.421 35.041l0.506 1.053-6.155 2.954-0.505-1.053zM113.573 34.181c0.098 0.204 0.111 0.401 0.04 0.59-0.071 0.189-0.206 0.331-0.404 0.426v0c-0.192 0.092-0.383 0.11-0.573 0.054-0.186-0.065-0.33-0.203-0.43-0.414v0c-0.098-0.204-0.114-0.399-0.049-0.585 0.069-0.195 0.199-0.339 0.391-0.431v0c0.198-0.095 0.395-0.108 0.59-0.04 0.192 0.063 0.338 0.196 0.435 0.4z" fill="#000000" data-fill-palette-color="accent"></path><path d="M116.045 41.567l0.266 1.145-9.036 3.188-0.345-0.979 0.824-0.365c-0.82-0.184-1.352-0.624-1.599-1.32v0c-0.248-0.703-0.143-1.354 0.317-1.953 0.459-0.599 1.209-1.083 2.25-1.45v0c0.678-0.239 1.308-0.352 1.892-0.339 0.581 0.007 1.075 0.136 1.481 0.387 0.406 0.252 0.69 0.607 0.852 1.065v0c0.215 0.609 0.137 1.208-0.234 1.797v0zM107.111 43.185c0.104 0.295 0.275 0.52 0.514 0.676 0.238 0.156 0.551 0.271 0.937 0.347v0l3.228-1.14c0.417-0.557 0.54-1.08 0.368-1.568v0c-0.153-0.433-0.48-0.702-0.984-0.807-0.505-0.111-1.176-0.012-2.011 0.297v0c-0.86 0.303-1.454 0.64-1.782 1.01-0.326 0.376-0.416 0.771-0.27 1.185z" fill="#000000" data-fill-palette-color="accent"></path><path d="M13.482 77.072l0.372 1.128-9.247 0.45-0.449-1.365 7.691-5.171 0.39 1.185-6.741 4.323z" fill="#000000" data-fill-palette-color="accent"></path><path d="M14.457 84.414l-6.182 2.899-0.428-0.913 0.906-0.491c-0.926-0.095-1.558-0.501-1.894-1.217v0c-0.232-0.494-0.254-0.957-0.068-1.39 0.193-0.436 0.563-0.782 1.112-1.04v0l4.545-2.131 0.496 1.057-4.455 2.089c-0.361 0.17-0.594 0.363-0.698 0.581-0.104 0.218-0.092 0.462 0.035 0.733v0c0.246 0.524 0.803 0.811 1.671 0.859v0l4.464-2.093z" fill="#000000" data-fill-palette-color="accent"></path><path d="M10.47 91.247c-0.217-0.351-0.283-0.697-0.198-1.039 0.083-0.333 0.317-0.619 0.702-0.857v0l7.078-4.381 0.725 0.925-7.154 4.428c-0.289 0.179-0.361 0.384-0.218 0.615v0c0.06 0.096 0.149 0.19 0.268 0.281v0l-0.56 0.651c-0.272-0.161-0.486-0.368-0.643-0.623z" fill="#000000" data-fill-palette-color="accent"></path><path d="M19.867 91.926c0.332 0.433 0.449 0.88 0.351 1.341-0.099 0.462-0.399 0.885-0.9 1.27v0l-3.942 3.027-0.711-0.926 3.823-2.936c0.354-0.272 0.562-0.524 0.626-0.758 0.064-0.234 0.003-0.472-0.184-0.714v0c-0.349-0.454-0.987-0.618-1.914-0.493v0l-3.847 2.954-0.711-0.926 5.415-4.158 0.62 0.807-0.753 0.691c0.948-0.065 1.657 0.208 2.127 0.821z" fill="#000000" data-fill-palette-color="accent"></path><path d="M23.603 100.64c-0.13 0.134-0.279 0.272-0.446 0.416v0l-2.839-2.764c-0.533 0.595-0.82 1.119-0.861 1.571-0.036 0.448 0.122 0.843 0.474 1.187v0c0.219 0.213 0.45 0.373 0.692 0.477 0.241 0.105 0.536 0.174 0.885 0.207v0l-0.109 0.856c-0.857-0.035-1.579-0.339-2.165-0.91v0c-0.634-0.617-0.912-1.319-0.833-2.106 0.084-0.782 0.515-1.574 1.295-2.375v0c0.775-0.796 1.557-1.266 2.345-1.408 0.793-0.147 1.488 0.069 2.084 0.65v0c0.586 0.571 0.835 1.222 0.747 1.952-0.094 0.726-0.517 1.475-1.269 2.247zM22.934 99.711l0.105-0.108c0.993-1.02 1.151-1.86 0.474-2.519v0c-0.31-0.302-0.681-0.412-1.113-0.331-0.427 0.086-0.933 0.406-1.518 0.96v0z" fill="#000000" data-fill-palette-color="accent"></path><path d="M29.687 101.118c0.179 0.138 0.316 0.277 0.41 0.417v0l-0.839 0.777c-0.099-0.144-0.223-0.272-0.37-0.386v0c-0.3-0.231-0.637-0.302-1.009-0.21-0.377 0.096-0.809 0.347-1.298 0.751v0l-2.448 3.179-0.925-0.713 4.166-5.408 0.806 0.621-0.757 1.131c0.877-0.593 1.631-0.646 2.264-0.159z" fill="#000000" data-fill-palette-color="accent"></path><path d="M32.258 109.043c-0.144 0.239-0.219 0.435-0.225 0.587 0 0.155 0.054 0.304 0.162 0.447v0l-0.626 0.555c-0.263-0.221-0.434-0.447-0.511-0.68-0.086-0.231-0.082-0.503 0.015-0.818v0c-0.733 0.367-1.439 0.346-2.117-0.063v0c-0.519-0.312-0.834-0.723-0.947-1.233-0.11-0.501-0.002-1.022 0.324-1.564v0c0.374-0.621 0.861-0.973 1.461-1.055 0.609-0.084 1.293 0.103 2.052 0.559v0l0.752 0.453 0.299-0.496c0.247-0.41 0.341-0.754 0.282-1.03-0.061-0.285-0.28-0.541-0.656-0.768v0c-0.405-0.244-0.94-0.426-1.605-0.546v0l0.174-0.851c0.817 0.127 1.505 0.358 2.063 0.694v0c1.271 0.765 1.525 1.783 0.76 3.055v0zM29.64 108.458c0.519 0.312 1.099 0.246 1.739-0.2v0l0.828-1.377-0.641-0.386c-0.964-0.58-1.687-0.468-2.171 0.336v0c-0.213 0.353-0.297 0.668-0.253 0.943 0.041 0.281 0.206 0.509 0.498 0.684z" fill="#000000" data-fill-palette-color="accent"></path><path d="M39.861 106.564c0.659 0.287 1.046 0.79 1.161 1.508 0.115 0.718-0.059 1.608-0.522 2.669v0c-0.442 1.012-0.987 1.729-1.635 2.15-0.655 0.419-1.317 0.482-1.988 0.189v0c-0.317-0.138-0.575-0.338-0.773-0.598-0.198-0.261-0.334-0.567-0.406-0.918v0l-0.373 0.654-0.951-0.415 3.827-8.773 1.123 0.348-1.485 3.403c0.326-0.199 0.663-0.321 1.009-0.365 0.34-0.048 0.678 0.002 1.013 0.148zM36.997 112.131c0.878 0.383 1.674-0.243 2.387-1.877v0c0.383-0.878 0.549-1.55 0.498-2.015-0.054-0.459-0.279-0.775-0.676-0.948v0c-0.281-0.122-0.56-0.146-0.839-0.072-0.285 0.072-0.589 0.219-0.911 0.441v0l-1.353 3.101c0.046 0.31 0.143 0.589 0.289 0.834 0.147 0.246 0.348 0.424 0.605 0.536z" fill="#000000" data-fill-palette-color="accent"></path><path d="M43.002 115.25c-0.394-0.121-0.672-0.338-0.834-0.652-0.157-0.306-0.169-0.675-0.036-1.107v0l2.439-7.959 1.155 0.218-2.466 8.045c-0.099 0.324-0.019 0.527 0.242 0.606v0c0.108 0.033 0.237 0.045 0.386 0.035v0l0.008 0.859c-0.31 0.058-0.608 0.043-0.894-0.045z" fill="#000000" data-fill-palette-color="accent"></path><path d="M51.566 113.195c-0.036 0.183-0.084 0.38-0.146 0.591v0l-3.889-0.759c-0.12 0.79-0.074 1.386 0.139 1.787 0.215 0.394 0.563 0.639 1.047 0.733v0c0.3 0.059 0.58 0.066 0.84 0.021 0.259-0.044 0.544-0.148 0.854-0.311v0l0.377 0.775c-0.737 0.439-1.507 0.58-2.31 0.424v0c-0.869-0.17-1.485-0.605-1.849-1.307-0.358-0.7-0.43-1.599-0.216-2.696v0c0.213-1.091 0.61-1.911 1.192-2.462 0.583-0.557 1.283-0.756 2.1-0.597v0c0.803 0.157 1.368 0.565 1.693 1.225 0.319 0.659 0.375 1.517 0.168 2.576zM50.497 112.783l0.029-0.147c0.273-1.398-0.054-2.187-0.982-2.368v0c-0.424-0.083-0.795 0.028-1.112 0.332-0.31 0.305-0.559 0.85-0.746 1.634v0z" fill="#000000" data-fill-palette-color="accent"></path><path d="M60.535 108.062c0.466-0.007 0.873 0.057 1.221 0.192 0.348 0.141 0.694 0.359 1.037 0.654v0l-0.618 0.738c-0.249-0.209-0.498-0.366-0.746-0.469-0.254-0.103-0.528-0.152-0.82-0.148v0c-0.672 0.01-1.203 0.307-1.595 0.891-0.391 0.578-0.577 1.509-0.559 2.793v0c0.018 1.244 0.23 2.159 0.638 2.746 0.408 0.586 0.947 0.875 1.62 0.865v0c0.339-0.005 0.628-0.069 0.865-0.191 0.244-0.13 0.508-0.313 0.791-0.551v0l0.619 0.71c-0.643 0.675-1.416 1.018-2.321 1.031v0c-0.665 0.009-1.26-0.155-1.784-0.493-0.517-0.339-0.924-0.855-1.22-1.55-0.303-0.688-0.461-1.537-0.475-2.549v0c-0.014-1.005 0.123-1.855 0.413-2.551 0.29-0.696 0.688-1.221 1.195-1.574 0.507-0.353 1.087-0.535 1.739-0.544z" fill="#000000" data-fill-palette-color="accent"></path><path d="M67.407 109.466c0.54-0.077 0.988 0.045 1.342 0.364 0.354 0.319 0.575 0.785 0.662 1.398v0l0.698 4.922-1.156 0.164-0.677-4.773c-0.063-0.441-0.183-0.747-0.362-0.917-0.179-0.17-0.413-0.234-0.702-0.193v0c-0.567 0.08-1.023 0.555-1.371 1.424v0l0.681 4.803-1.157 0.164-1.343-9.477 1.138-0.292 0.541 3.814c0.198-0.404 0.432-0.723 0.701-0.956 0.275-0.241 0.61-0.389 1.005-0.445z" fill="#000000" data-fill-palette-color="accent"></path><path d="M71.456 108.773l1.132-0.29 1.693 6.614-1.131 0.289zM71.23 105.514c0.219-0.056 0.415-0.031 0.586 0.076 0.172 0.107 0.285 0.267 0.339 0.48v0c0.053 0.206 0.033 0.397-0.06 0.572-0.101 0.17-0.264 0.284-0.489 0.341v0c-0.219 0.056-0.414 0.034-0.584-0.067-0.178-0.105-0.294-0.261-0.346-0.467v0c-0.054-0.213-0.029-0.408 0.076-0.587 0.099-0.176 0.258-0.293 0.478-0.348z" fill="#000000" data-fill-palette-color="accent"></path><path d="M78.495 113.893c-0.39 0.134-0.743 0.122-1.057-0.037-0.307-0.155-0.533-0.446-0.681-0.874v0l-2.706-7.872 1.062-0.503 2.736 7.957c0.11 0.321 0.295 0.437 0.552 0.348v0c0.107-0.037 0.218-0.103 0.333-0.198v0l0.511 0.689c-0.217 0.229-0.467 0.393-0.75 0.49z" fill="#000000" data-fill-palette-color="accent"></path><path d="M80.637 102.142l1.113-0.376 4.048 8.685-0.941 0.439-0.443-0.785c-0.103 0.834-0.49 1.407-1.159 1.718v0c-0.675 0.315-1.334 0.273-1.974-0.125-0.641-0.399-1.195-1.099-1.662-2.1v0c-0.304-0.651-0.477-1.268-0.521-1.849-0.05-0.579 0.031-1.083 0.243-1.512 0.211-0.429 0.537-0.746 0.977-0.951v0c0.585-0.273 1.189-0.253 1.811 0.059v0zM83.112 110.877c0.283-0.132 0.491-0.324 0.623-0.576 0.132-0.252 0.217-0.575 0.254-0.967v0l-1.446-3.103c-0.594-0.362-1.127-0.433-1.597-0.213v0c-0.416 0.194-0.652 0.546-0.708 1.056-0.062 0.513 0.102 1.171 0.49 1.974v0c0.385 0.826 0.778 1.385 1.178 1.676 0.406 0.288 0.808 0.339 1.206 0.153z" fill="#000000" data-fill-palette-color="accent"></path><path d="M87.244 101.391c0.192-0.12 0.369-0.2 0.533-0.24v0l0.439 1.056c-0.169 0.043-0.333 0.115-0.49 0.213v0c-0.321 0.202-0.503 0.493-0.547 0.874-0.04 0.387 0.045 0.879 0.256 1.478v0l2.135 3.397-0.989 0.621-3.632-5.78 0.862-0.542 0.798 1.102c-0.253-1.028-0.041-1.754 0.635-2.179z" fill="#000000" data-fill-palette-color="accent"></path><path d="M94.692 99.782c0.116 0.145 0.235 0.31 0.357 0.494v0l-3.093 2.476c0.525 0.603 1.009 0.952 1.453 1.049 0.44 0.091 0.852-0.017 1.236-0.325v0c0.239-0.191 0.425-0.4 0.559-0.627 0.134-0.227 0.239-0.511 0.315-0.853v0l0.835 0.213c-0.141 0.846-0.531 1.525-1.169 2.037v0c-0.691 0.553-1.422 0.742-2.193 0.566-0.766-0.179-1.498-0.706-2.197-1.578v0c-0.695-0.867-1.064-1.701-1.108-2.501-0.048-0.805 0.252-1.468 0.902-1.988v0c0.639-0.512 1.315-0.678 2.029-0.499 0.709 0.183 1.4 0.695 2.074 1.536zM93.687 100.331l-0.094-0.117c-0.89-1.112-1.704-1.372-2.441-0.782v0c-0.338 0.27-0.493 0.625-0.466 1.064 0.032 0.434 0.287 0.976 0.765 1.625v0z" fill="#000000" data-fill-palette-color="accent"></path><path d="M96.007 93.608c0.379-0.393 0.804-0.575 1.275-0.546 0.471 0.029 0.934 0.263 1.389 0.702v0l3.578 3.449-0.81 0.841-3.471-3.346c-0.321-0.309-0.602-0.478-0.842-0.506-0.241-0.029-0.467 0.067-0.679 0.287v0c-0.397 0.412-0.465 1.067-0.204 1.966v0l3.492 3.367-0.81 0.841-4.916-4.738 0.707-0.733 0.795 0.642c-0.205-0.928-0.04-1.67 0.496-2.226z" fill="#000000" data-fill-palette-color="accent"></path><path d="M109.46 86.435l-0.641 1.07-2.251-0.65-1.539 2.568 1.635 1.678-0.62 1.036-6.326-6.804 0.76-1.267zM100.915 85.201l3.424 3.529 1.287-2.149z" fill="#000000" data-fill-palette-color="accent"></path><path d="M104.263 81.546l0.506-1.052 6.154 2.954-0.505 1.053zM101.621 79.625c0.098-0.204 0.243-0.337 0.435-0.4 0.192-0.063 0.388-0.046 0.586 0.048v0c0.192 0.092 0.325 0.23 0.399 0.414 0.065 0.186 0.048 0.385-0.053 0.594v0c-0.098 0.204-0.24 0.339-0.426 0.404-0.195 0.069-0.389 0.057-0.581-0.035v0c-0.198-0.095-0.331-0.24-0.4-0.436-0.071-0.189-0.058-0.386 0.04-0.589z" fill="#000000" data-fill-palette-color="accent"></path><path d="M104.163 73.784l0.511-1.058 9.036 3.188-0.346 0.979-0.87-0.233c0.523 0.657 0.662 1.334 0.416 2.03v0c-0.248 0.703-0.739 1.144-1.472 1.323-0.733 0.179-1.621 0.084-2.663-0.284v0c-0.678-0.239-1.239-0.547-1.685-0.922-0.448-0.37-0.751-0.78-0.91-1.232-0.158-0.451-0.157-0.906 0.005-1.363v0c0.215-0.609 0.651-1.026 1.31-1.253v0zM112.133 78.131c0.104-0.295 0.112-0.578 0.025-0.849-0.088-0.271-0.259-0.557-0.512-0.858v0l-3.229-1.139c-0.674 0.171-1.098 0.502-1.27 0.991v0c-0.153 0.433-0.066 0.848 0.259 1.245 0.323 0.403 0.908 0.747 1.753 1.031v0c0.86 0.303 1.533 0.414 2.021 0.332 0.49-0.088 0.808-0.339 0.954-0.753z" fill="#000000" data-fill-palette-color="accent"></path><path d="M0.96 59.772c0-2.118 1.717-3.836 3.836-3.836 2.118 0 3.836 1.717 3.835 3.836 0 2.118-1.717 3.836-3.835 3.835-2.118 0-3.836-1.717-3.836-3.835z" fill="#000000" data-fill-palette-color="accent"></path><path d="M108.692 59.772c0-2.118 1.717-3.836 3.836-3.836 2.118 0 3.836 1.717 3.835 3.836 0 2.118-1.717 3.836-3.835 3.835-2.118 0-3.836-1.717-3.836-3.835z" fill="#000000" data-fill-palette-color="accent"></path></g><g id="text-1"></g></svg></g></svg></g></svg></g><defs></defs></svg><rect width="395.52" height="87.22822976257851" fill="none" stroke="none" visibility="hidden"></rect></g></svg></g></svg>